<?xml version="1.0" encoding="UTF-8" standalone="no"?>
<svg width="28px" height="32px" viewBox="0 0 28 32" version="1.1" xmlns="http://www.w3.org/2000/svg" xmlns:xlink="http://www.w3.org/1999/xlink">
    <!-- Generator: Sketch 39.1 (31720) - http://www.bohemiancoding.com/sketch -->
    <title>clipboard-check</title>
    <desc>Created with Sketch.</desc>
    <defs></defs>
    <g id="Page-1" stroke="none" stroke-width="1" fill="none" fill-rule="evenodd">
        <g id="clipboard-check" fill="#FFFFFF">
            <path d="M22,2 C22,0.895 21.105,0 20,0 L8,0 C6.895,0 6,0.895 6,2 L6,4 L22,4 L22,2 L22,2 Z" id="Shape"></path>
            <path d="M26,2 L24,2 L24,6 L4,6 L4,2 L2,2 C0.895,2 0,2.895 0,4 L0,30 C0,31.105 0.895,32 2,32 L26,32 C27.105,32 28,31.105 28,30 L28,4 C28,2.895 27.105,2 26,2 L26,2 Z M12,26 L6,20 L9,17 L12,20 L19,13 L22,16 L12,26 L12,26 Z" id="Shape"></path>
        </g>
    </g>
</svg>