<?xml version="1.0" encoding="UTF-8" standalone="no"?>
<svg width="28px" height="32px" viewBox="0 0 28 32" version="1.1" xmlns="http://www.w3.org/2000/svg" xmlns:xlink="http://www.w3.org/1999/xlink">
    <!-- Generator: Sketch 39.1 (31720) - http://www.bohemiancoding.com/sketch -->
    <title>clipboard</title>
    <desc>Created with Sketch.</desc>
    <defs></defs>
    <g id="Page-1" stroke="none" stroke-width="1" fill="none" fill-rule="evenodd">
        <g id="noun_106916_cc" transform="translate(-170.000000, -167.000000)" fill="#FFFFFF">
            <g id="Group">
                <path d="M196,169 L194,169 L194,173 L174,173 L174,169 L171.999,169 C170.894,169 170,169.895 170,171 L170,197 C170,198.105 170.894,199 171.999,199 L196,199 C197.105,199 198,198.105 198,197 L198,171 C198,169.895 197.105,169 196,169 Z M192,169 C192,167.895 191.105,167 190,167 L177.999,167 C176.894,167 176,167.895 176,169 L176,171 L192,171 L192,169 Z" id="clipboard"></path>
            </g>
        </g>
    </g>
</svg>